<svg width="60" height="60" viewBox="0 0 60 60" fill="none" xmlns="http://www.w3.org/2000/svg">
<g clip-path="url(#clip0_195_410)">
<path d="M47.5 17.5C47.5 14.75 45.25 12.5 42.5 12.5H35V17.5H42.5V24.125L33.8 35H25V22.5H15C9.475 22.5 5 26.975 5 32.5V40H10C10 44.15 13.35 47.5 17.5 47.5C21.65 47.5 25 44.15 25 40H36.2L47.5 25.875V17.5ZM17.5 42.5C16.125 42.5 15 41.375 15 40H20C20 41.375 18.875 42.5 17.5 42.5Z" fill="#C9202C"/>
<path d="M25 15H12.5V20H25V15Z" fill="#C9202C"/>
<path d="M47.5 32.5C43.35 32.5 40 35.85 40 40C40 44.15 43.35 47.5 47.5 47.5C51.65 47.5 55 44.15 55 40C55 35.85 51.65 32.5 47.5 32.5ZM47.5 42.5C46.125 42.5 45 41.375 45 40C45 38.625 46.125 37.5 47.5 37.5C48.875 37.5 50 38.625 50 40C50 41.375 48.875 42.5 47.5 42.5Z" fill="#C9202C"/>
</g>
<defs>
<clipPath id="clip0_195_410">
<rect width="60" height="60" fill="white"/>
</clipPath>
</defs>
</svg>
