<svg width="34" height="34" viewBox="0 0 34 34" fill="none" xmlns="http://www.w3.org/2000/svg">
<g clip-path="url(#clip0_33_661)">
<path d="M12.7499 31.1667C13.5323 31.1667 14.1666 30.5324 14.1666 29.75C14.1666 28.9676 13.5323 28.3333 12.7499 28.3333C11.9675 28.3333 11.3333 28.9676 11.3333 29.75C11.3333 30.5324 11.9675 31.1667 12.7499 31.1667Z" stroke="white" stroke-width="3" stroke-linecap="round" stroke-linejoin="round"/>
<path d="M28.3334 31.1667C29.1158 31.1667 29.7501 30.5324 29.7501 29.75C29.7501 28.9676 29.1158 28.3333 28.3334 28.3333C27.551 28.3333 26.9167 28.9676 26.9167 29.75C26.9167 30.5324 27.551 31.1667 28.3334 31.1667Z" stroke="white" stroke-width="3" stroke-linecap="round" stroke-linejoin="round"/>
<path d="M1.41675 1.41667H7.08341L10.8801 20.3858C11.0096 21.0381 11.3645 21.6239 11.8824 22.0409C12.4004 22.4579 13.0486 22.6794 13.7134 22.6667H27.4834C28.1483 22.6794 28.7964 22.4579 29.3144 22.0409C29.8324 21.6239 30.1872 21.0381 30.3167 20.3858L32.5834 8.5H8.50008" stroke="white" stroke-width="3" stroke-linecap="round" stroke-linejoin="round"/>
</g>
<defs>
<clipPath id="clip0_33_661">
<rect width="34" height="34" fill="white"/>
</clipPath>
</defs>
</svg>
