<svg width="34" height="34" viewBox="0 0 34 34" fill="none" xmlns="http://www.w3.org/2000/svg">
<g clip-path="url(#clip0_135_438)">
<path d="M12.7497 31.1667C13.5321 31.1667 14.1663 30.5324 14.1663 29.75C14.1663 28.9676 13.5321 28.3333 12.7497 28.3333C11.9673 28.3333 11.333 28.9676 11.333 29.75C11.333 30.5324 11.9673 31.1667 12.7497 31.1667Z" stroke="#C9202C" stroke-width="3" stroke-linecap="round" stroke-linejoin="round"/>
<path d="M28.3337 31.1667C29.1161 31.1667 29.7503 30.5324 29.7503 29.75C29.7503 28.9676 29.1161 28.3333 28.3337 28.3333C27.5513 28.3333 26.917 28.9676 26.917 29.75C26.917 30.5324 27.5513 31.1667 28.3337 31.1667Z" stroke="#C9202C" stroke-width="3" stroke-linecap="round" stroke-linejoin="round"/>
<path d="M1.41699 1.41667H7.08366L10.8803 20.3858C11.0099 21.0381 11.3647 21.6239 11.8827 22.0409C12.4007 22.4579 13.0488 22.6794 13.7137 22.6667H27.4837C28.1485 22.6794 28.7966 22.4579 29.3146 22.0409C29.8326 21.6239 30.1874 21.0381 30.317 20.3858L32.5837 8.5H8.50033" stroke="#C9202C" stroke-width="3" stroke-linecap="round" stroke-linejoin="round"/>
</g>
<defs>
<clipPath id="clip0_135_438">
<rect width="34" height="34" fill="white"/>
</clipPath>
</defs>
</svg>
