<svg width="80" height="80" viewBox="0 0 80 80" fill="none" xmlns="http://www.w3.org/2000/svg">
<g clip-path="url(#clip0_135_1535)">
<path d="M63.3332 23.3333C63.3332 19.6667 60.3332 16.6667 56.6665 16.6667H46.6665V23.3333H56.6665V32.1667L45.0665 46.6667H33.3332V30H19.9998C12.6332 30 6.6665 35.9667 6.6665 43.3333V53.3333H13.3332C13.3332 58.8667 17.7998 63.3333 23.3332 63.3333C28.8665 63.3333 33.3332 58.8667 33.3332 53.3333H48.2665L63.3332 34.5V23.3333ZM23.3332 56.6667C21.4998 56.6667 19.9998 55.1667 19.9998 53.3333H26.6665C26.6665 55.1667 25.1665 56.6667 23.3332 56.6667Z" fill="#828282"/>
<path d="M33.3332 20H16.6665V26.6667H33.3332V20Z" fill="#828282"/>
<path d="M63.333 43.3333C57.7997 43.3333 53.333 47.8 53.333 53.3333C53.333 58.8667 57.7997 63.3333 63.333 63.3333C68.8663 63.3333 73.333 58.8667 73.333 53.3333C73.333 47.8 68.8663 43.3333 63.333 43.3333ZM63.333 56.6667C61.4997 56.6667 59.9997 55.1667 59.9997 53.3333C59.9997 51.5 61.4997 50 63.333 50C65.1663 50 66.6663 51.5 66.6663 53.3333C66.6663 55.1667 65.1663 56.6667 63.333 56.6667Z" fill="#828282"/>
</g>
<defs>
<clipPath id="clip0_135_1535">
<rect width="80" height="80" fill="white"/>
</clipPath>
</defs>
</svg>
